<svg xmlns="http://www.w3.org/2000/svg" viewBox="0 0 64 64">
  <rect width="64" height="64" rx="12" fill="white"/>
  <path d="M32 32
    C32 30, 34 28, 36 30
    C38 32, 36 35, 33 35
    C30 35, 28 32, 29 29
    C30 26, 33 24, 36 25
    C39 26, 41 29, 40 33
    C39 37, 35 40, 31 39
    C27 38, 24 34, 25.5 30
    C27 26, 31 22, 36 23
    C41 24, 44 29, 43 34
    C42 39, 37 43, 31 42
    C25 41, 21 36, 22.5 30
    C24 24, 29 19, 36 20
    C43 21, 47 27, 46 34
    C45 41, 39 47, 31 46
    C23 45, 18 38, 20 30
    C22 22, 28 16, 36 17.5"
    stroke="#1A1A1A"
    stroke-width="2.5"
    stroke-linecap="round"
    fill="none"/>
</svg>
